<svg id="Componente_4_1" data-name="Componente 4 – 1" xmlns="http://www.w3.org/2000/svg" width="58.78" height="62.979" viewBox="0 0 58.78 62.979">
  <defs>
    <style>
      .cls-1 {
        fill:#002169;
      }
    </style>
  </defs>
  <path id="Trazado_12" data-name="Trazado 12" class="cls-1" d="M90.127,61.983,88.95,60.806V54.763a1.051,1.051,0,0,0-1.05-1.05H81.857L79.63,51.487a3.13,3.13,0,0,0-2.226-.923h-6.3V49.515a6.306,6.306,0,0,0-6.3-6.3H41.716a6.305,6.305,0,0,0-6.3,6.3V95.7h-2.1a1.049,1.049,0,0,0-1.049,1.049v8.4a1.05,1.05,0,0,0,1.049,1.05H74.255v-2.1H34.368V97.8H70.056a1.05,1.05,0,0,0,1.05-1.05V79.955h1.05A1.049,1.049,0,0,1,73.205,81v16.27a8.922,8.922,0,0,0,17.844,0V64.21a3.133,3.133,0,0,0-.922-2.227M78.146,52.971l2.534,2.534a1.051,1.051,0,0,0,.743.308h5.428v5.428a1.047,1.047,0,0,0,.307.742l1.484,1.485a1.038,1.038,0,0,1,.308.742v12.6h-2.1V65.079a1.05,1.05,0,0,0-.308-.742l-2.968-2.968a1.051,1.051,0,0,0-.743-.308H77.411c0-2.856-.007-5.25-.007-5.25a1.051,1.051,0,0,0-1.05-1.048H75.305v-2.1h2.1a1.041,1.041,0,0,1,.742.307m-5.99,20.686h-1.05V56.862h4.2c0,1.16.006,11.037,0,12.586a4.2,4.2,0,0,0,4.2,4.209h5.243V97.274a2.624,2.624,0,0,1-5.248,0V81a7.356,7.356,0,0,0-7.347-7.347M82.4,63.16l2.354,2.354v1.845H81.6v-4.2Zm-1.844,6.3h4.2v2.1H79.508a2.1,2.1,0,0,1-2.1-2.1c0-1.3,0-4.292,0-6.294H79.5v5.249a1.05,1.05,0,0,0,1.05,1.049M73.205,54.763h-2.1v-2.1h2.1ZM37.517,95.7V49.515a4.2,4.2,0,0,1,4.2-4.2H64.808a4.2,4.2,0,0,1,4.2,4.2V95.7ZM88.95,97.274a6.822,6.822,0,1,1-13.645,0V81a3.154,3.154,0,0,0-3.149-3.149h-1.05v-2.1h1.05A5.255,5.255,0,0,1,77.4,81v16.27a4.723,4.723,0,0,0,9.447,0V78.9h2.1Z" transform="translate(-32.269 -43.217)"/>
  <path id="Trazado_13" data-name="Trazado 13" class="cls-1" d="M64.808,49.515H41.715a1.05,1.05,0,0,0-1.049,1.05V67.359a1.05,1.05,0,0,0,1.049,1.05H64.808a1.05,1.05,0,0,0,1.049-1.05V50.565a1.05,1.05,0,0,0-1.049-1.05m-1.05,16.794H42.765V51.614H63.758Z" transform="translate(-32.269 -43.217)"/>
</svg>
